<svg width="720" height="720" viewBox="0 0 720 720" fill="none" xmlns="http://www.w3.org/2000/svg">
<path d="M360.002 604.799C351.1 604.773 342.512 601.516 335.833 595.631C329.154 589.747 324.84 581.637 323.693 572.81H299.11C294.78 572.985 290.506 571.787 286.897 569.389C283.288 566.991 280.528 563.514 279.012 559.455C277.495 555.396 277.3 550.961 278.452 546.784C279.605 542.607 282.047 538.9 285.43 536.193C283.241 534.263 281.488 531.889 280.287 529.229C279.086 526.568 278.465 523.683 278.465 520.765C278.465 517.846 279.086 514.961 280.287 512.301C281.488 509.641 283.241 507.267 285.43 505.336C282.754 503.095 280.693 500.21 279.44 496.953C278.186 493.695 277.783 490.172 278.266 486.716C278.75 483.259 280.105 479.983 282.204 477.194C284.303 474.406 287.076 472.197 290.264 470.776C288.362 467.689 287.397 464.116 287.487 460.49C287.487 434.776 264.242 371.827 241.51 335.622C227.198 313.343 219.107 287.64 218.076 261.181C217.046 234.721 223.112 208.467 235.647 185.142C247.933 163.171 266.044 145.015 287.984 132.675C309.925 120.335 334.845 114.287 360.002 115.199C385.158 114.287 410.078 120.335 432.019 132.675C453.96 145.015 472.07 163.171 484.356 185.142C496.95 208.504 503.049 234.816 502.018 261.337C500.986 287.857 492.863 313.616 478.493 335.93C455.762 372.033 432.516 434.982 432.516 460.799C432.606 464.424 431.641 467.997 429.739 471.085C432.927 472.506 435.701 474.714 437.8 477.503C439.899 480.291 441.254 483.568 441.737 487.024C442.221 490.481 441.817 494.004 440.563 497.261C439.31 500.519 437.249 503.404 434.573 505.645C436.762 507.575 438.515 509.949 439.716 512.609C440.917 515.269 441.538 518.155 441.538 521.073C441.538 523.992 440.917 526.877 439.716 529.537C438.515 532.197 436.762 534.571 434.573 536.502C437.956 539.209 440.399 542.916 441.551 547.093C442.704 551.27 442.508 555.704 440.991 559.764C439.475 563.823 436.715 567.299 433.106 569.698C429.497 572.096 425.223 573.293 420.893 573.119H396.31C395.095 581.89 390.751 589.926 384.079 595.748C377.407 601.569 368.856 604.784 360.002 604.799V604.799ZM334.184 573.325C335.476 579.183 338.728 584.425 343.405 588.183C348.081 591.94 353.9 593.989 359.899 593.989C365.898 593.989 371.717 591.94 376.393 588.183C381.069 584.425 384.322 579.183 385.613 573.325H334.184ZM299.11 541.336C296.3 541.336 293.606 542.452 291.619 544.439C289.632 546.426 288.516 549.121 288.516 551.93C288.516 554.74 289.632 557.435 291.619 559.422C293.606 561.408 296.3 562.525 299.11 562.525H420.893C423.703 562.525 426.397 561.408 428.384 559.422C430.371 557.435 431.487 554.74 431.487 551.93C431.487 549.121 430.371 546.426 428.384 544.439C426.397 542.452 423.703 541.336 420.893 541.336H299.11ZM297.67 510.479C294.942 510.67 292.402 511.937 290.608 514.001C288.814 516.065 287.913 518.757 288.104 521.485C288.295 524.213 289.562 526.753 291.626 528.547C293.69 530.341 296.382 531.241 299.11 531.05H420.893C423.621 531.241 426.313 530.341 428.377 528.547C430.441 526.753 431.708 524.213 431.899 521.485C432.09 518.757 431.189 516.065 429.395 514.001C427.601 511.937 425.061 510.67 422.333 510.479H297.67ZM299.11 500.193H422.539C425.267 500.002 427.807 498.735 429.601 496.671C431.395 494.608 432.295 491.915 432.104 489.188C431.913 486.46 430.647 483.919 428.583 482.125C426.519 480.331 423.827 479.431 421.099 479.622H299.11C296.382 479.431 293.69 480.331 291.626 482.125C289.562 483.919 288.295 486.46 288.104 489.188C287.913 491.915 288.814 494.608 290.608 496.671C292.402 498.735 294.942 500.002 297.67 500.193H299.11ZM302.504 469.336H417.499C418.918 468.553 420.104 467.407 420.935 466.016C421.766 464.624 422.213 463.037 422.23 461.416C422.23 430.559 448.253 365.245 469.75 331.096C483.131 310.342 490.705 286.38 491.682 261.706C492.658 237.031 487.003 212.546 475.304 190.799C463.976 170.339 447.211 153.411 426.862 141.884C406.514 130.358 383.374 124.682 360.002 125.485C336.716 124.563 313.626 130.074 293.268 141.415C272.909 152.756 256.069 169.486 244.596 189.77C232.897 211.517 227.242 236.003 228.219 260.677C229.195 285.352 236.769 309.313 250.15 330.067C271.647 364.216 297.67 429.942 297.67 460.387C297.697 462.019 298.16 463.613 299.009 465.005C299.859 466.398 301.066 467.538 302.504 468.307V469.336Z" fill="url(#paint0_linear)"/>
<defs>
<linearGradient id="paint0_linear" x1="360.002" y1="115.199" x2="360.002" y2="604.799" gradientUnits="userSpaceOnUse">
<stop stop-color="#00C1C4"/>
<stop offset="1" stop-color="#4594E1"/>
</linearGradient>
</defs>
</svg>