<svg width="720" height="720" viewBox="0 0 720 720" fill="none" xmlns="http://www.w3.org/2000/svg">
<path d="M387.361 418.834H332.641C323.093 418.834 313.937 415.041 307.185 408.29C300.434 401.539 296.641 392.382 296.641 382.834C296.641 373.286 300.434 364.13 307.185 357.378C313.937 350.627 323.093 346.834 332.641 346.834H387.361C396.909 346.834 406.066 350.627 412.817 357.378C419.568 364.13 423.361 373.286 423.361 382.834C423.361 392.382 419.568 401.539 412.817 408.29C406.066 415.041 396.909 418.834 387.361 418.834V418.834ZM332.641 357.12C325.821 357.12 319.281 359.829 314.458 364.652C309.636 369.474 306.927 376.014 306.927 382.834C306.927 389.654 309.636 396.195 314.458 401.017C319.281 405.839 325.821 408.549 332.641 408.549H387.361C394.181 408.549 400.721 405.839 405.544 401.017C410.366 396.195 413.075 389.654 413.075 382.834C413.075 376.014 410.366 369.474 405.544 364.652C400.721 359.829 394.181 357.12 387.361 357.12H332.641ZM294.07 342.926C294.552 342.448 294.934 341.879 295.195 341.252C295.456 340.625 295.591 339.953 295.591 339.274C295.591 338.595 295.456 337.923 295.195 337.296C294.934 336.67 294.552 336.101 294.07 335.623C282.516 326.283 268.519 320.463 253.75 318.857C252.386 318.653 250.996 318.998 249.887 319.818C248.778 320.638 248.04 321.865 247.835 323.229C247.631 324.592 247.976 325.982 248.796 327.091C249.616 328.2 250.843 328.938 252.207 329.143C264.874 330.583 276.865 335.615 286.767 343.646C287.245 344.128 287.814 344.51 288.44 344.771C289.067 345.033 289.739 345.167 290.418 345.167C291.097 345.167 291.769 345.033 292.396 344.771C293.023 344.51 293.592 344.128 294.07 343.646V342.926ZM167.864 351.463C179.941 342.476 193.525 335.718 207.978 331.509C208.654 331.326 209.286 331.013 209.841 330.586C210.395 330.159 210.859 329.627 211.208 329.02C211.557 328.414 211.782 327.745 211.872 327.051C211.962 326.357 211.915 325.652 211.732 324.977C211.55 324.302 211.237 323.669 210.81 323.115C210.383 322.561 209.851 322.096 209.244 321.747C208.638 321.399 207.969 321.173 207.275 321.083C206.581 320.993 205.876 321.04 205.201 321.223C189.568 325.748 174.869 333.028 161.795 342.72C160.691 343.525 159.951 344.735 159.738 346.086C159.526 347.436 159.859 348.815 160.664 349.92C161.469 351.025 162.679 351.765 164.03 351.977C165.38 352.189 166.759 351.856 167.864 351.051V351.463ZM112.63 416.469C119.273 404.775 126.84 393.631 135.258 383.143C136.117 382.079 136.519 380.717 136.374 379.357C136.23 377.997 135.551 376.751 134.487 375.891C133.423 375.032 132.061 374.631 130.701 374.775C129.341 374.92 128.095 375.599 127.235 376.663C118.433 387.6 110.521 399.226 103.578 411.429C103.241 412.016 103.022 412.664 102.935 413.337C102.848 414.009 102.894 414.691 103.07 415.345C103.247 416 103.551 416.613 103.965 417.15C104.378 417.686 104.893 418.137 105.481 418.474C106.069 418.812 106.717 419.031 107.389 419.118C108.061 419.205 108.744 419.159 109.398 418.982C110.052 418.805 110.665 418.502 111.202 418.088C111.739 417.674 112.189 417.159 112.527 416.571L112.63 416.469ZM332.127 324.411C332.719 324.071 333.237 323.616 333.651 323.074C334.066 322.531 334.368 321.912 334.54 321.251C334.712 320.59 334.751 319.902 334.655 319.226C334.559 318.55 334.328 317.9 333.978 317.314C328.515 308.114 321.99 299.587 314.538 291.909C314.065 291.422 313.502 291.034 312.879 290.766C312.256 290.497 311.586 290.354 310.908 290.345C310.23 290.335 309.557 290.459 308.926 290.71C308.296 290.961 307.722 291.333 307.235 291.806C306.749 292.278 306.361 292.842 306.092 293.465C305.824 294.088 305.681 294.758 305.671 295.436C305.662 296.114 305.786 296.787 306.037 297.417C306.287 298.048 306.66 298.622 307.132 299.109C314.027 306.197 320.068 314.067 325.132 322.56C325.473 323.152 325.927 323.67 326.47 324.084C327.013 324.499 327.632 324.801 328.293 324.973C328.954 325.146 329.642 325.185 330.318 325.088C330.994 324.992 331.644 324.762 332.23 324.411H332.127ZM177.841 266.709C200.106 259.193 224.061 258.229 246.858 263.931C247.534 264.1 248.236 264.134 248.924 264.032C249.613 263.929 250.274 263.692 250.871 263.334C251.468 262.976 251.989 262.504 252.403 261.944C252.818 261.385 253.118 260.75 253.287 260.074C253.456 259.399 253.49 258.697 253.387 258.008C253.285 257.32 253.048 256.658 252.69 256.061C252.331 255.464 251.859 254.944 251.3 254.529C250.74 254.115 250.105 253.815 249.43 253.646C224.603 247.375 198.493 248.411 174.241 256.629C172.877 256.847 171.656 257.598 170.846 258.717C170.035 259.835 169.703 261.23 169.921 262.594C170.139 263.958 170.89 265.18 172.009 265.99C173.128 266.8 174.523 267.132 175.887 266.914L177.841 266.709ZM96.5839 325.646C102.993 317.935 109.863 310.618 117.155 303.737C117.655 303.278 118.06 302.725 118.346 302.109C118.631 301.494 118.793 300.828 118.822 300.15C118.851 299.471 118.746 298.794 118.513 298.157C118.279 297.519 117.923 296.934 117.464 296.434C117.005 295.934 116.451 295.53 115.836 295.244C115.22 294.958 114.555 294.796 113.876 294.767C113.198 294.739 112.521 294.844 111.884 295.077C111.246 295.31 110.661 295.666 110.161 296.126C102.44 303.256 95.1586 310.847 88.3553 318.857C87.4688 319.894 87.0303 321.24 87.1364 322.6C87.2425 323.96 87.8844 325.222 88.9211 326.109C89.9577 326.995 91.304 327.434 92.6639 327.328C94.0238 327.221 95.2859 326.579 96.1725 325.543L96.5839 325.646ZM356.401 318.857C357.063 318.722 357.692 318.458 358.252 318.08C358.812 317.702 359.291 317.217 359.664 316.654C360.036 316.09 360.294 315.459 360.423 314.796C360.551 314.132 360.548 313.45 360.412 312.789C358.303 302.303 355.415 291.988 351.772 281.931C351.536 281.297 351.177 280.714 350.716 280.218C350.254 279.722 349.7 279.322 349.084 279.04C348.468 278.758 347.802 278.601 347.125 278.576C346.448 278.552 345.773 278.661 345.138 278.897C344.503 279.133 343.921 279.493 343.425 279.954C342.929 280.415 342.529 280.97 342.247 281.586C341.965 282.202 341.808 282.867 341.783 283.544C341.758 284.221 341.868 284.897 342.104 285.531C345.548 294.952 348.298 304.612 350.332 314.434C350.57 315.596 351.201 316.64 352.119 317.39C353.038 318.139 354.187 318.549 355.372 318.549L356.401 318.857ZM322.15 244.08C321.36 244.092 320.578 243.922 319.864 243.583C319.151 243.244 318.525 242.746 318.035 242.126C307.907 228.901 295.38 217.701 281.11 209.109C279.962 208.401 279.138 207.27 278.815 205.961C278.493 204.651 278.698 203.268 279.386 202.108C280.073 200.948 281.189 200.105 282.493 199.759C283.797 199.414 285.184 199.595 286.355 200.263C301.689 209.509 315.156 221.545 326.058 235.749C326.656 236.505 327.029 237.414 327.135 238.372C327.241 239.331 327.075 240.3 326.657 241.168C326.239 242.037 325.585 242.77 324.769 243.285C323.954 243.8 323.011 244.076 322.047 244.08H322.15ZM184.012 194.914C182.649 195.064 181.281 194.666 180.21 193.808C179.14 192.95 178.454 191.701 178.304 190.337C178.154 188.973 178.552 187.605 179.41 186.535C180.269 185.464 181.517 184.779 182.881 184.629C200.509 180.718 218.697 180.021 236.572 182.571C237.936 182.762 239.169 183.487 239.998 184.587C240.828 185.686 241.186 187.07 240.995 188.434C240.804 189.798 240.079 191.03 238.98 191.86C237.88 192.689 236.496 193.048 235.132 192.857C218.615 190.598 201.828 191.295 185.555 194.914H184.012ZM113.144 229.166C121.151 223.101 129.571 217.602 138.344 212.709C139.013 212.432 139.617 212.018 140.115 211.492C140.614 210.967 140.995 210.342 141.235 209.658C141.475 208.975 141.568 208.248 141.508 207.527C141.448 206.805 141.236 206.104 140.886 205.47C140.536 204.836 140.056 204.283 139.478 203.847C138.899 203.411 138.235 203.102 137.529 202.941C136.823 202.779 136.091 202.769 135.38 202.91C134.67 203.051 133.997 203.341 133.407 203.76C124.204 208.897 115.371 214.671 106.972 221.04C105.881 221.858 105.16 223.077 104.967 224.427C104.774 225.777 105.126 227.149 105.944 228.24C106.762 229.331 107.981 230.053 109.331 230.245C110.681 230.438 112.053 230.087 113.144 229.269V229.166ZM438.79 343.131C448.637 335.142 460.55 330.112 473.144 328.629C474.508 328.424 475.735 327.686 476.554 326.577C477.374 325.468 477.72 324.078 477.515 322.714C477.311 321.35 476.573 320.123 475.464 319.304C474.354 318.484 472.965 318.138 471.601 318.343C457.029 320.23 443.295 326.223 432.001 335.623C431.133 336.588 430.662 337.845 430.683 339.143C430.703 340.441 431.214 341.683 432.112 342.62C433.01 343.557 434.229 344.12 435.525 344.196C436.821 344.272 438.097 343.855 439.098 343.029L438.79 343.131ZM564.995 350.331C565.395 349.785 565.683 349.165 565.843 348.507C566.002 347.849 566.03 347.165 565.925 346.496C565.82 345.827 565.584 345.186 565.23 344.608C564.876 344.031 564.412 343.529 563.864 343.131C550.79 333.439 536.091 326.159 520.458 321.634C519.783 321.452 519.078 321.404 518.384 321.494C517.691 321.584 517.021 321.81 516.415 322.159C515.808 322.507 515.277 322.972 514.85 323.526C514.423 324.08 514.109 324.713 513.927 325.389C513.744 326.064 513.697 326.769 513.787 327.462C513.877 328.156 514.103 328.825 514.451 329.432C514.8 330.038 515.264 330.57 515.819 330.997C516.373 331.424 517.006 331.738 517.681 331.92C532.134 336.13 545.719 342.887 557.795 351.874C558.657 352.521 559.701 352.881 560.778 352.903C561.64 352.863 562.479 352.606 563.216 352.157C563.953 351.707 564.565 351.079 564.995 350.331V350.331ZM620.127 418.32C621.312 417.65 622.183 416.538 622.549 415.227C622.916 413.916 622.747 412.513 622.081 411.326C615.168 399.128 607.292 387.503 598.527 376.56C598.101 376.033 597.576 375.595 596.982 375.271C596.387 374.948 595.734 374.744 595.061 374.672C594.387 374.601 593.707 374.662 593.057 374.854C592.408 375.046 591.802 375.363 591.275 375.789C590.749 376.214 590.311 376.739 589.987 377.334C589.663 377.928 589.459 378.581 589.388 379.254C589.316 379.928 589.378 380.609 589.569 381.258C589.761 381.908 590.078 382.513 590.504 383.04C598.92 393.53 606.487 404.674 613.132 416.366C613.802 417.551 614.915 418.422 616.226 418.788C617.537 419.155 618.94 418.986 620.127 418.32ZM400.527 322.56C405.59 314.066 411.631 306.195 418.527 299.109C419.482 298.126 420.007 296.805 419.988 295.436C419.969 294.066 419.406 292.76 418.424 291.806C417.442 290.851 416.121 290.325 414.751 290.345C413.382 290.364 412.076 290.926 411.121 291.909C403.671 299.589 397.147 308.116 391.681 317.314C391.006 318.489 390.822 319.882 391.169 321.192C391.515 322.502 392.365 323.622 393.532 324.309C394.309 324.775 395.198 325.024 396.104 325.029C396.991 325.034 397.865 324.809 398.64 324.377C399.415 323.944 400.065 323.318 400.527 322.56V322.56ZM554.812 263.417C555.234 262.121 555.125 260.711 554.507 259.496C553.89 258.281 552.816 257.361 551.521 256.937C527.269 248.72 501.159 247.684 476.332 253.954C475.657 254.123 475.022 254.423 474.462 254.838C473.903 255.252 473.431 255.773 473.072 256.37C472.714 256.967 472.477 257.628 472.375 258.317C472.272 259.005 472.307 259.707 472.475 260.383C472.644 261.058 472.944 261.694 473.359 262.253C473.773 262.812 474.294 263.285 474.891 263.643C475.488 264.001 476.149 264.238 476.838 264.341C477.527 264.443 478.229 264.409 478.904 264.24C501.831 258.457 525.941 259.421 548.332 267.017H549.978C551.012 266.968 552.007 266.607 552.833 265.983C553.658 265.36 554.277 264.501 554.607 263.52L554.812 263.417ZM637.098 326.16C637.623 325.724 638.055 325.188 638.371 324.583C638.686 323.979 638.878 323.317 638.936 322.638C638.993 321.958 638.915 321.274 638.705 320.625C638.496 319.976 638.159 319.375 637.715 318.857C630.912 310.847 623.63 303.256 615.91 296.126C614.9 295.198 613.564 294.71 612.194 294.767C610.825 294.825 609.534 295.425 608.607 296.434C607.679 297.444 607.191 298.78 607.249 300.15C607.306 301.519 607.906 302.81 608.915 303.737C616.208 310.618 623.078 317.935 629.487 325.646C630.365 326.675 631.612 327.316 632.96 327.432C634.308 327.547 635.647 327.127 636.687 326.263L637.098 326.16ZM375.635 314.846C377.67 305.024 380.42 295.364 383.864 285.943C384.341 284.661 384.29 283.241 383.721 281.997C383.152 280.753 382.112 279.786 380.83 279.309C379.548 278.831 378.128 278.883 376.884 279.452C375.64 280.021 374.673 281.061 374.195 282.343C370.553 292.4 367.665 302.714 365.555 313.2C365.42 313.862 365.417 314.544 365.545 315.207C365.673 315.87 365.931 316.502 366.304 317.065C366.676 317.629 367.156 318.113 367.716 318.492C368.276 318.87 368.905 319.134 369.567 319.269H370.287C371.484 319.236 372.632 318.787 373.534 317.998C374.435 317.209 375.033 316.131 375.224 314.949L375.635 314.846ZM403.818 244.08C402.854 244.076 401.911 243.8 401.095 243.285C400.28 242.77 399.626 242.037 399.208 241.168C398.79 240.3 398.624 239.331 398.73 238.372C398.836 237.414 399.209 236.505 399.807 235.749C410.709 221.545 424.176 209.509 439.51 200.263C440.681 199.595 442.068 199.414 443.372 199.759C444.676 200.105 445.792 200.948 446.479 202.108C447.167 203.268 447.372 204.651 447.05 205.961C446.727 207.27 445.903 208.401 444.755 209.109C430.485 217.701 417.958 228.901 407.83 242.126C407.32 242.808 406.65 243.353 405.878 243.712C405.106 244.071 404.257 244.233 403.407 244.183L403.818 244.08ZM541.955 194.811H540.824C524.551 191.192 507.764 190.495 491.247 192.754C489.883 192.945 488.499 192.586 487.399 191.757C486.3 190.928 485.575 189.695 485.384 188.331C485.193 186.967 485.552 185.583 486.381 184.484C487.211 183.384 488.443 182.659 489.807 182.469C507.52 180.03 525.526 180.761 542.984 184.629C543.659 184.703 544.313 184.909 544.909 185.236C545.504 185.564 546.03 186.005 546.455 186.535C546.88 187.065 547.196 187.674 547.386 188.326C547.576 188.978 547.635 189.662 547.561 190.337C547.487 191.012 547.28 191.667 546.953 192.262C546.626 192.858 546.185 193.383 545.655 193.808C545.125 194.233 544.516 194.549 543.864 194.739C543.211 194.929 542.528 194.989 541.852 194.914L541.955 194.811ZM620.127 228.137C620.945 227.046 621.297 225.674 621.104 224.324C620.911 222.974 620.189 221.755 619.098 220.937C610.7 214.568 601.867 208.794 592.664 203.657C591.464 203.002 590.052 202.851 588.741 203.237C587.429 203.623 586.324 204.514 585.67 205.714C585.015 206.915 584.864 208.326 585.25 209.637C585.635 210.949 586.526 212.054 587.727 212.709C596.499 217.602 604.92 223.101 612.927 229.166C613.467 229.571 614.082 229.866 614.736 230.033C615.39 230.201 616.071 230.238 616.74 230.143C617.408 230.047 618.052 229.821 618.633 229.477C619.214 229.133 619.722 228.677 620.127 228.137V228.137ZM364.115 272.366C364.784 272.265 365.427 272.034 366.006 271.685C366.586 271.335 367.091 270.875 367.492 270.331C367.893 269.786 368.183 269.168 368.345 268.511C368.507 267.854 368.538 267.172 368.435 266.503C366.955 256.086 364.791 245.778 361.955 235.646C361.766 234.97 361.446 234.339 361.013 233.787C360.58 233.236 360.042 232.775 359.431 232.431C358.82 232.087 358.147 231.867 357.45 231.783C356.754 231.699 356.048 231.754 355.372 231.943C354.697 232.132 354.066 232.452 353.514 232.885C352.962 233.319 352.502 233.856 352.158 234.467C351.814 235.079 351.594 235.752 351.51 236.448C351.426 237.144 351.481 237.85 351.67 238.526C354.373 248.219 356.434 258.081 357.841 268.046C358.013 269.264 358.616 270.38 359.541 271.191C360.466 272.003 361.651 272.456 362.881 272.469L364.115 272.366ZM346.218 209.417C347.386 208.73 348.235 207.61 348.582 206.301C348.928 204.991 348.744 203.597 348.07 202.423C341.925 191.981 334.381 182.43 325.647 174.034C325.16 173.561 324.586 173.189 323.956 172.938C323.326 172.688 322.652 172.564 321.974 172.573C321.296 172.583 320.626 172.726 320.003 172.994C319.381 173.262 318.817 173.651 318.344 174.137C317.871 174.623 317.499 175.198 317.248 175.828C316.997 176.458 316.873 177.132 316.883 177.81C316.892 178.488 317.035 179.158 317.304 179.78C317.572 180.403 317.96 180.967 318.447 181.44C326.451 189.181 333.371 197.969 339.018 207.566C339.705 208.733 340.825 209.583 342.135 209.929C343.444 210.276 344.838 210.092 346.012 209.417H346.218ZM299.007 158.914C299.751 157.78 300.017 156.398 299.748 155.069C299.478 153.74 298.694 152.571 297.567 151.817C288.791 146.078 279.728 140.791 270.412 135.977C269.811 135.666 269.155 135.477 268.481 135.42C267.807 135.363 267.128 135.44 266.483 135.645C265.838 135.85 265.24 136.181 264.723 136.617C264.206 137.053 263.78 137.587 263.47 138.189C263.159 138.79 262.97 139.446 262.913 140.12C262.856 140.794 262.932 141.473 263.137 142.118C263.343 142.763 263.673 143.361 264.11 143.878C264.546 144.395 265.08 144.821 265.681 145.131C274.678 149.755 283.432 154.836 291.91 160.354C292.735 160.894 293.7 161.18 294.687 161.177C295.538 161.187 296.378 160.985 297.132 160.59C297.886 160.195 298.53 159.619 299.007 158.914V158.914ZM368.538 268.457C369.946 258.492 372.008 248.631 374.71 238.937C374.899 238.262 374.953 237.556 374.869 236.859C374.785 236.163 374.565 235.49 374.222 234.879C373.878 234.268 373.417 233.73 372.865 233.297C372.314 232.864 371.682 232.543 371.007 232.354C370.331 232.165 369.625 232.111 368.929 232.195C368.233 232.278 367.56 232.498 366.948 232.842C366.337 233.186 365.8 233.647 365.366 234.199C364.933 234.75 364.613 235.382 364.424 236.057C361.589 246.189 359.424 256.497 357.944 266.914C357.842 267.583 357.872 268.265 358.034 268.922C358.196 269.579 358.486 270.197 358.887 270.742C359.289 271.287 359.794 271.747 360.373 272.096C360.952 272.445 361.595 272.677 362.264 272.777H362.984C364.285 272.898 365.584 272.518 366.615 271.716C367.647 270.913 368.335 269.748 368.538 268.457ZM387.67 208.08C393.317 198.483 400.237 189.695 408.241 181.954C408.892 181.541 409.442 180.988 409.85 180.334C410.258 179.68 410.514 178.942 410.599 178.176C410.684 177.41 410.595 176.635 410.34 175.907C410.085 175.18 409.669 174.519 409.124 173.974C408.579 173.429 407.918 173.013 407.191 172.758C406.464 172.503 405.688 172.414 404.922 172.499C404.156 172.584 403.418 172.84 402.764 173.248C402.11 173.656 401.557 174.206 401.144 174.857C392.412 183.255 384.868 192.806 378.721 203.246C378.363 203.827 378.124 204.474 378.018 205.148C377.912 205.823 377.942 206.512 378.105 207.175C378.268 207.838 378.562 208.462 378.969 209.01C379.376 209.559 379.888 210.02 380.475 210.369C381.063 210.717 381.713 210.945 382.39 211.039C383.066 211.133 383.754 211.091 384.415 210.917C385.075 210.742 385.693 210.438 386.235 210.021C386.776 209.605 387.229 209.085 387.567 208.491L387.67 208.08ZM434.984 160.869C443.457 155.311 452.211 150.196 461.212 145.543C461.814 145.232 462.348 144.806 462.784 144.289C463.22 143.772 463.551 143.174 463.756 142.529C463.961 141.885 464.038 141.206 463.981 140.532C463.924 139.857 463.735 139.201 463.424 138.6C463.113 137.999 462.687 137.465 462.17 137.028C461.653 136.592 461.055 136.262 460.41 136.056C459.766 135.851 459.087 135.775 458.413 135.832C457.739 135.889 457.082 136.078 456.481 136.389C447.161 141.194 438.097 146.481 429.327 152.229C428.387 152.835 427.671 153.731 427.287 154.781C426.902 155.831 426.87 156.977 427.196 158.047C427.521 159.116 428.187 160.051 429.091 160.708C429.995 161.366 431.089 161.711 432.207 161.691C433.204 161.664 434.17 161.342 434.984 160.766V160.869ZM396.207 584.64H324.207C323.035 584.645 321.897 584.251 320.981 583.521C320.064 582.792 319.424 581.771 319.167 580.629L297.155 485.794C297.113 485.418 297.113 485.039 297.155 484.663C297.155 467.486 297.155 427.063 360.515 427.063C423.875 427.063 423.875 467.383 423.875 484.663C423.918 485.039 423.918 485.418 423.875 485.794L401.144 580.629C400.87 581.735 400.237 582.719 399.343 583.427C398.45 584.134 397.346 584.525 396.207 584.537V584.64ZM327.91 574.354H392.092L412.664 484.046C412.664 467.383 412.047 437.349 359.59 437.349C307.132 437.349 306.515 467.383 306.515 484.046L327.91 574.354ZM651.498 579.497C651.498 578.133 650.956 576.825 649.992 575.861C649.027 574.896 647.719 574.354 646.355 574.354H73.6468C72.2828 574.354 70.9747 574.896 70.0102 575.861C69.0457 576.825 68.5039 578.133 68.5039 579.497C68.5039 580.861 69.0457 582.169 70.0102 583.134C70.9747 584.098 72.2828 584.64 73.6468 584.64H646.355C647.039 584.64 647.717 584.504 648.347 584.239C648.978 583.974 649.55 583.586 650.029 583.098C650.508 582.609 650.884 582.03 651.137 581.394C651.389 580.758 651.512 580.078 651.498 579.394V579.497Z" fill="url(#paint0_linear)"/>
<defs>
<linearGradient id="paint0_linear" x1="360.001" y1="135.463" x2="360.001" y2="584.537" gradientUnits="userSpaceOnUse">
<stop stop-color="#00C1C4"/>
<stop offset="1" stop-color="#4594E1"/>
</linearGradient>
</defs>
</svg>