<svg width="720" height="720" viewBox="0 0 720 720" fill="none" xmlns="http://www.w3.org/2000/svg">
<path d="M534.857 83.3152H185.143C176.959 83.3152 169.11 86.5662 163.323 92.353C157.537 98.1399 154.286 105.989 154.286 114.172V607.887C154.286 616.07 157.537 623.919 163.323 629.706C169.11 635.493 176.959 638.744 185.143 638.744H534.857C543.041 638.744 550.89 635.493 556.676 629.706C562.463 623.919 565.714 616.07 565.714 607.887V114.172C565.714 105.989 562.463 98.1399 556.676 92.353C550.89 86.5662 543.041 83.3152 534.857 83.3152V83.3152ZM167.554 103.887C169.34 100.792 171.902 98.2168 174.986 96.4132C178.07 94.6097 181.57 93.6404 185.143 93.6009H354.857V103.887H167.451C165.602 107.002 164.609 110.55 164.571 114.172H354.857V134.744H164.571V114.172L167.554 103.887ZM164.571 145.029H354.857V165.601H164.571V145.029ZM164.571 175.887H354.857V196.458H164.571V175.887ZM164.571 206.744H354.857V227.315H164.571V206.744ZM164.571 237.601H354.857V258.172H164.571V237.601ZM164.571 268.458H354.857V289.029H164.571V268.458ZM164.571 299.315H354.857V319.887H164.571V299.315ZM164.571 330.172H354.857V350.744H164.571V330.172ZM354.857 628.458H185.143C179.687 628.458 174.454 626.291 170.597 622.433C166.739 618.575 164.571 613.342 164.571 607.887V361.029H354.857V628.458H365.143V361.029H555.429V607.887C555.429 613.342 553.261 618.575 549.403 622.433C545.545 626.291 540.313 628.458 534.857 628.458H365.143H354.857ZM555.429 350.744H365.143V330.172H555.429V350.744ZM555.429 319.887H365.143V299.315H555.429V319.887ZM555.429 289.029H365.143V268.458H555.429V289.029ZM555.429 258.172H365.143V237.601H555.429V258.172ZM555.429 227.315H365.143V206.744H555.429V227.315ZM555.429 196.458H365.143V175.887H555.429V196.458ZM555.429 165.601H365.143V145.029H555.429V165.601ZM555.429 114.172V134.744H365.143V114.172H555.429C555.391 110.55 554.397 107.002 552.549 103.887H365.143V93.6009H534.857C538.447 93.6226 541.969 94.5834 545.073 96.3878C548.176 98.1922 550.754 100.777 552.549 103.887" fill="url(#paint0_linear)"/>
<defs>
<linearGradient id="paint0_linear" x1="360" y1="83.3152" x2="360" y2="638.744" gradientUnits="userSpaceOnUse">
<stop stop-color="#00C1C4"/>
<stop offset="1" stop-color="#4594E1"/>
</linearGradient>
</defs>
</svg>