<svg width="720" height="720" viewBox="0 0 720 720" fill="none" xmlns="http://www.w3.org/2000/svg">
<path d="M647.279 485.999C625.543 449.871 590.491 423.72 549.668 413.176C560.504 394.405 567.366 373.607 569.825 352.073C572.285 330.539 570.29 308.729 563.965 287.999C563.718 287.199 563.28 286.473 562.688 285.881C562.097 285.29 561.37 284.851 560.571 284.604C525.042 273.6 486.756 275.606 452.571 290.261V290.261V287.999C448.767 259.693 438.731 232.585 423.185 208.626C407.64 184.668 386.973 164.457 362.674 149.45C361.88 148.979 360.974 148.731 360.051 148.731C359.128 148.731 358.222 148.979 357.428 149.45C332.966 164.579 312.191 184.98 296.62 209.164C281.05 233.347 271.076 260.703 267.428 289.233V289.233V290.261L266.194 300.547V301.576C265.576 308.056 265.268 314.536 265.268 321.119C264.651 351.87 271.654 382.296 285.653 409.683C299.651 437.07 320.211 460.567 345.496 478.079V478.079L347.039 479.21L343.028 480.033L339.942 480.65L315.976 483.427C273.947 484.383 233.256 468.624 202.834 439.61C194.949 431.8 188.041 423.062 182.262 413.587C171.107 395.937 163.81 376.127 160.85 355.458C157.89 334.789 159.333 313.728 165.085 293.656C198.475 284.021 234.203 286.573 265.885 300.856C265.885 297.256 266.605 293.759 267.119 290.57C233.027 275.981 194.861 273.976 159.428 284.913C158.629 285.16 157.902 285.598 157.31 286.19C156.719 286.781 156.281 287.508 156.034 288.307C149.709 309.038 147.714 330.848 150.173 352.382C152.633 373.916 159.494 394.714 170.331 413.484C129.508 424.029 94.4559 450.179 72.7193 486.307C72.2679 487.089 72.0303 487.976 72.0303 488.879C72.0303 489.781 72.2679 490.668 72.7193 491.45C87.9955 516.255 109.493 536.633 135.078 550.562C160.663 564.491 189.446 571.487 218.571 570.856C246.825 570.29 274.507 562.779 299.171 548.985C323.836 535.19 344.727 515.537 359.999 491.759C375.278 515.53 396.17 535.179 420.834 548.973C445.497 562.766 473.175 570.281 501.428 570.856C530.582 571.455 559.385 564.412 584.972 550.428C610.56 536.443 632.041 516.003 647.279 491.142C647.731 490.36 647.968 489.473 647.968 488.57C647.968 487.667 647.731 486.78 647.279 485.999V485.999ZM554.708 293.553C560.49 313.611 561.967 334.664 559.042 355.333C556.117 376.001 548.857 395.818 537.736 413.484C531.96 422.992 525.053 431.765 517.165 439.61C498.235 457.506 475.229 470.521 450.139 477.528C425.049 484.536 398.629 485.325 373.165 479.827C399.038 462.417 420.128 438.793 434.504 411.119C448.88 383.445 456.082 352.606 455.451 321.427C455.451 315.153 455.451 308.982 454.525 302.81V301.267C486.025 286.914 521.59 284.181 554.914 293.553H554.708ZM218.365 560.982C191.517 561.544 164.972 555.222 141.259 542.619C117.547 530.015 97.4561 511.55 82.9021 488.982C103.957 455.67 137.163 431.872 175.474 422.639C181.24 431.387 187.93 439.491 195.428 446.81C215.512 465.834 239.911 479.702 266.532 487.227C293.154 494.751 321.202 495.706 348.274 490.01C333.822 511.237 314.516 528.711 291.959 540.982C269.401 553.254 244.243 559.969 218.571 560.57L218.365 560.982ZM356.914 474.479C331.208 458.283 310.124 435.719 295.706 408.975C281.289 382.231 274.028 352.215 274.628 321.839C273.903 289.861 281.366 258.228 296.308 229.947C311.25 201.665 333.175 177.673 359.999 160.25C386.669 177.697 408.454 201.65 423.301 229.849C438.147 258.049 445.566 289.566 444.856 321.427C445.476 352.325 437.963 382.844 423.069 409.923C408.176 437.002 386.426 459.69 359.999 475.713L356.914 474.479ZM500.914 560.982C475.223 560.318 450.061 553.532 427.52 541.188C404.979 528.844 385.71 511.299 371.314 490.01C382.674 492.426 394.259 493.633 405.874 493.61C449.857 493.985 492.254 477.196 524.056 446.81C531.8 439.363 538.699 431.084 544.628 422.124C582.939 431.358 616.144 455.155 637.199 488.467C622.63 511.1 602.496 529.614 578.724 542.238C554.952 554.863 528.337 561.175 501.428 560.57L500.914 560.982Z" fill="url(#paint0_linear)"/>
<defs>
<linearGradient id="paint0_linear" x1="359.999" y1="149.141" x2="359.999" y2="570.856" gradientUnits="userSpaceOnUse">
<stop stop-color="#00C1C4"/>
<stop offset="1" stop-color="#4594E1"/>
</linearGradient>
</defs>
</svg>