<svg width="720" height="720" viewBox="0 0 720 720" fill="none" xmlns="http://www.w3.org/2000/svg">
<path d="M193.68 612.514C177.853 613.012 162.35 607.954 149.863 598.216C144.601 593.925 140.364 588.511 137.464 582.371C134.563 576.231 133.071 569.521 133.097 562.731C133.097 529.302 167.348 495.874 209.314 488.159C219.9 485.63 230.912 485.452 241.575 487.638C252.238 489.823 262.291 494.32 271.028 500.811C273.389 502.761 275.559 504.93 277.508 507.291V229.576C277.621 226.645 278.572 223.807 280.25 221.401C281.927 218.994 284.26 217.119 286.971 215.999L565.714 108.514C568.013 107.651 570.486 107.357 572.923 107.657C575.359 107.957 577.687 108.842 579.708 110.236C581.729 111.631 583.383 113.493 584.528 115.665C585.673 117.836 586.276 120.253 586.286 122.708V452.571C586.286 485.999 552.034 519.428 510.068 527.142C499.482 529.664 488.471 529.839 477.81 527.653C467.148 525.468 457.095 520.975 448.354 514.491C443.14 510.137 438.966 504.672 436.136 498.497C433.306 492.321 431.893 485.591 432 478.799C432 445.371 466.251 411.942 508.217 404.228C518.803 401.698 529.815 401.52 540.478 403.706C551.14 405.892 561.194 410.389 569.931 416.879C572.291 418.83 574.461 420.999 576.411 423.359V206.536L288 315.462V536.296C288 569.725 253.748 603.154 211.783 610.868C205.813 611.977 199.752 612.527 193.68 612.514V612.514ZM227.006 496.799C221.727 496.803 216.46 497.285 211.268 498.239C173.828 505.131 143.486 534.034 143.486 562.731C143.439 568.014 144.591 573.239 146.853 578.013C149.116 582.787 152.43 586.987 156.548 590.296C164.093 595.732 172.726 599.467 181.854 601.243C190.981 603.019 200.385 602.793 209.417 600.582C246.857 593.896 277.714 564.891 277.714 536.296C277.76 531.013 276.609 525.789 274.347 521.014C272.084 516.24 268.769 512.04 264.651 508.731C253.905 500.434 240.569 496.207 227.006 496.799V496.799ZM510.583 414.514C473.143 421.096 442.286 450.102 442.286 478.799C442.239 484.082 443.391 489.307 445.653 494.081C447.916 498.856 451.23 503.055 455.348 506.365C462.893 511.801 471.526 515.536 480.654 517.312C489.781 519.087 499.185 518.862 508.217 516.651C545.657 509.759 576 480.856 576 452.159C576.046 446.876 574.895 441.651 572.632 436.877C570.37 432.103 567.055 427.903 562.937 424.594C555.393 419.158 546.759 415.423 537.632 413.647C528.504 411.871 519.1 412.097 510.068 414.308L510.583 414.514ZM571.68 117.976C571.101 117.875 570.51 117.875 569.931 117.976L290.674 225.256C289.735 225.612 288.927 226.246 288.357 227.073C287.787 227.9 287.483 228.881 287.486 229.885V304.456L576.514 195.428V122.708C576.514 121.398 575.994 120.143 575.068 119.217C574.142 118.291 572.886 117.771 571.577 117.771L571.68 117.976Z" fill="url(#paint0_linear)"/>
<defs>
<linearGradient id="paint0_linear" x1="360" y1="107.485" x2="360" y2="612.514" gradientUnits="userSpaceOnUse">
<stop stop-color="#00C1C4"/>
<stop offset="1" stop-color="#4594E1"/>
</linearGradient>
</defs>
</svg>