<svg width="720" height="720" viewBox="0 0 720 720" fill="none" xmlns="http://www.w3.org/2000/svg">
<path d="M501.53 471.29H218.467C217.103 471.29 215.795 470.749 214.83 469.784C213.866 468.82 213.324 467.511 213.324 466.148V324.616C213.324 305.355 217.118 286.282 224.489 268.486C231.86 250.691 242.664 234.522 256.284 220.902C269.904 207.282 286.073 196.478 303.868 189.107C321.664 181.736 340.737 177.942 359.998 177.942C379.26 177.942 398.333 181.736 416.128 189.107C433.923 196.478 450.093 207.282 463.713 220.902C477.333 234.522 488.136 250.691 495.508 268.486C502.879 286.282 506.672 305.355 506.672 324.616V466.148C506.672 467.511 506.131 468.82 505.166 469.784C504.202 470.749 502.894 471.29 501.53 471.29ZM223.815 461.005H496.387V324.616C496.387 306.705 492.859 288.97 486.005 272.422C479.151 255.875 469.104 240.84 456.439 228.175C443.775 215.51 428.739 205.464 412.192 198.609C395.644 191.755 377.909 188.228 359.998 188.228C342.087 188.228 324.352 191.755 307.805 198.609C291.257 205.464 276.222 215.51 263.557 228.175C250.892 240.84 240.846 255.875 233.992 272.422C227.137 288.97 223.61 306.705 223.61 324.616L223.815 461.005ZM271.027 324.616C271.054 301.009 280.43 278.373 297.103 261.661C313.777 244.949 336.391 235.521 359.998 235.439C361.362 235.439 362.67 234.897 363.635 233.933C364.599 232.968 365.141 231.66 365.141 230.296C365.141 228.932 364.599 227.624 363.635 226.66C362.67 225.695 361.362 225.153 359.998 225.153C333.627 225.18 308.344 235.668 289.697 254.315C271.05 272.962 260.563 298.245 260.535 324.616C260.535 325.98 261.077 327.288 262.042 328.253C263.006 329.217 264.314 329.759 265.678 329.759C267.042 329.759 268.35 329.217 269.315 328.253C270.279 327.288 270.821 325.98 270.821 324.616H271.027ZM365.141 135.976V88.7647C365.141 87.4007 364.599 86.0926 363.635 85.1281C362.67 84.1637 361.362 83.6218 359.998 83.6218C358.634 83.6218 357.326 84.1637 356.362 85.1281C355.397 86.0926 354.855 87.4007 354.855 88.7647V135.976C354.855 137.34 355.397 138.648 356.362 139.613C357.326 140.577 358.634 141.119 359.998 141.119C361.362 141.119 362.67 140.577 363.635 139.613C364.599 138.648 365.141 137.34 365.141 135.976ZM600.992 348.17C600.992 346.806 600.451 345.498 599.486 344.534C598.522 343.569 597.214 343.028 595.85 343.028H548.638C547.274 343.028 545.966 343.569 545.002 344.534C544.037 345.498 543.495 346.806 543.495 348.17C543.495 349.534 544.037 350.842 545.002 351.807C545.966 352.771 547.274 353.313 548.638 353.313H595.85C597.214 353.313 598.522 352.771 599.486 351.807C600.451 350.842 600.992 349.534 600.992 348.17V348.17ZM176.501 348.17C176.501 346.806 175.959 345.498 174.995 344.534C174.03 343.569 172.722 343.028 171.358 343.028H124.147C122.783 343.028 121.475 343.569 120.51 344.534C119.546 345.498 119.004 346.806 119.004 348.17C119.004 349.534 119.546 350.842 120.51 351.807C121.475 352.771 122.783 353.313 124.147 353.313H171.358C172.722 353.313 174.03 352.771 174.995 351.807C175.959 350.842 176.501 349.534 176.501 348.17V348.17ZM497.107 194.81L530.432 161.485C531.401 160.516 531.945 159.203 531.945 157.833C531.945 156.464 531.401 155.15 530.432 154.182C529.464 153.213 528.151 152.669 526.781 152.669C525.411 152.669 524.098 153.213 523.13 154.182L489.804 187.508C488.835 188.476 488.291 189.789 488.291 191.159C488.291 192.529 488.835 193.842 489.804 194.81C490.772 195.779 492.086 196.323 493.455 196.323C494.825 196.323 496.138 195.779 497.107 194.81V194.81ZM213.53 211.473C214.012 210.995 214.394 210.426 214.655 209.8C214.916 209.173 215.051 208.501 215.051 207.822C215.051 207.143 214.916 206.471 214.655 205.844C214.394 205.217 214.012 204.648 213.53 204.17L180.204 170.845C179.235 169.876 177.922 169.332 176.552 169.332C175.183 169.332 173.869 169.876 172.901 170.845C171.933 171.813 171.389 173.127 171.389 174.496C171.389 175.866 171.933 177.179 172.901 178.148L206.227 211.473C206.705 211.955 207.274 212.338 207.9 212.599C208.527 212.86 209.199 212.994 209.878 212.994C210.557 212.994 211.229 212.86 211.856 212.599C212.483 212.338 213.052 211.955 213.53 211.473V211.473ZM548.638 542.056H171.358C169.994 542.056 168.686 541.514 167.722 540.55C166.757 539.585 166.215 538.277 166.215 536.913V476.433C166.215 472.341 167.841 468.417 170.734 465.524C173.628 462.63 177.552 461.005 181.644 461.005H538.352C542.444 461.005 546.369 462.63 549.262 465.524C552.156 468.417 553.781 472.341 553.781 476.433V536.913C553.781 538.277 553.239 539.585 552.275 540.55C551.31 541.514 550.002 542.056 548.638 542.056ZM176.398 531.77H543.495V476.433C543.495 475.069 542.954 473.761 541.989 472.797C541.025 471.832 539.716 471.29 538.352 471.29H181.644C180.28 471.29 178.972 471.832 178.007 472.797C177.043 473.761 176.501 475.069 176.501 476.433L176.398 531.77ZM595.85 636.376H124.147C122.783 636.376 121.475 635.834 120.51 634.87C119.546 633.905 119.004 632.597 119.004 631.233V547.199C119.004 543.107 120.629 539.183 123.523 536.289C126.416 533.396 130.341 531.77 134.432 531.77H585.564C589.656 531.77 593.58 533.396 596.474 536.289C599.367 539.183 600.992 543.107 600.992 547.199V631.233C600.992 632.597 600.451 633.905 599.486 634.87C598.522 635.834 597.214 636.376 595.85 636.376V636.376ZM129.29 626.09H590.707V547.199C590.707 545.835 590.165 544.527 589.2 543.562C588.236 542.598 586.928 542.056 585.564 542.056H134.432C133.069 542.056 131.76 542.598 130.796 543.562C129.831 544.527 129.29 545.835 129.29 547.199V626.09Z" fill="url(#paint0_linear)"/>
<defs>
<linearGradient id="paint0_linear" x1="359.998" y1="83.6218" x2="359.998" y2="636.376" gradientUnits="userSpaceOnUse">
<stop stop-color="#00C1C4"/>
<stop offset="1" stop-color="#4594E1"/>
</linearGradient>
</defs>
</svg>