<svg width="720" height="720" viewBox="0 0 720 720" fill="none" xmlns="http://www.w3.org/2000/svg">
<path d="M307.44 416.571C305.775 416.563 304.132 416.194 302.624 415.49C301.115 414.786 299.777 413.764 298.702 412.493C297.626 411.222 296.839 409.733 296.395 408.129C295.95 406.525 295.858 404.843 296.126 403.2L305.074 351.771C305.156 351.612 305.198 351.436 305.198 351.257C305.198 351.078 305.156 350.902 305.074 350.743L267.429 313.406C265.882 311.918 264.785 310.025 264.265 307.943C263.745 305.861 263.823 303.674 264.488 301.634C265.154 299.594 266.381 297.783 268.029 296.408C269.677 295.034 271.679 294.152 273.806 293.863L325.954 286.251C326.13 286.221 326.297 286.149 326.44 286.042C326.583 285.934 326.699 285.795 326.777 285.634L349.714 238.423C350.647 236.487 352.107 234.854 353.926 233.71C355.746 232.567 357.851 231.961 360 231.961C362.149 231.961 364.254 232.567 366.074 233.71C367.893 234.854 369.353 236.487 370.286 238.423L393.634 285.634C393.713 285.795 393.829 285.934 393.972 286.042C394.115 286.149 394.281 286.221 394.457 286.251L446.606 293.863C448.732 294.152 450.734 295.034 452.382 296.408C454.03 297.783 455.257 299.594 455.923 301.634C456.589 303.674 456.666 305.861 456.146 307.943C455.626 310.025 454.53 311.918 452.983 313.406L415.234 349.714C415.153 349.873 415.111 350.05 415.111 350.228C415.111 350.407 415.153 350.584 415.234 350.743L424.183 402.171C424.556 404.284 424.326 406.459 423.52 408.447C422.714 410.436 421.364 412.156 419.624 413.412C417.885 414.669 415.827 415.409 413.686 415.55C411.545 415.69 409.408 415.224 407.52 414.206L360.514 390.857C360.342 390.758 360.147 390.705 359.949 390.705C359.75 390.705 359.555 390.758 359.383 390.857L312.789 415.337C311.133 416.177 309.297 416.601 307.44 416.571ZM360 380.571C361.866 380.569 363.703 381.029 365.349 381.909L411.943 406.388C412.121 406.522 412.337 406.594 412.56 406.594C412.783 406.594 412.999 406.522 413.177 406.388C413.288 406.221 413.347 406.024 413.347 405.823C413.347 405.622 413.288 405.425 413.177 405.257L404.229 353.829C403.886 351.976 404.007 350.067 404.581 348.272C405.156 346.477 406.165 344.852 407.52 343.543L445.269 306.72C445.427 306.574 445.54 306.387 445.596 306.179C445.651 305.971 445.646 305.752 445.582 305.547C445.517 305.341 445.395 305.159 445.23 305.021C445.065 304.882 444.865 304.794 444.651 304.766L392.503 297.154C390.66 296.892 388.91 296.183 387.404 295.089C385.898 293.996 384.683 292.551 383.863 290.88L361.029 243.051C360.938 242.854 360.793 242.687 360.611 242.57C360.429 242.453 360.217 242.391 360 242.391C359.783 242.391 359.571 242.453 359.389 242.57C359.207 242.687 359.062 242.854 358.971 243.051L335.623 290.263C334.803 291.934 333.587 293.379 332.082 294.472C330.576 295.566 328.825 296.275 326.983 296.537L274.834 304.148C274.621 304.177 274.42 304.265 274.256 304.404C274.091 304.542 273.969 304.724 273.904 304.929C273.839 305.134 273.835 305.354 273.89 305.562C273.945 305.769 274.059 305.957 274.217 306.103L311.966 342.926C313.313 344.241 314.318 345.866 314.891 347.659C315.465 349.452 315.591 351.358 315.257 353.211L306.309 404.64C306.198 404.808 306.139 405.005 306.139 405.206C306.139 405.407 306.198 405.603 306.309 405.771C306.487 405.905 306.703 405.977 306.926 405.977C307.148 405.977 307.365 405.905 307.543 405.771L354.137 381.291C355.993 380.536 358.016 380.288 360 380.571V380.571ZM360 632.571C359.094 632.562 358.207 632.314 357.429 631.851C349.2 627.017 156.857 512.228 156.857 411.943V167.143C156.851 166.404 157.004 165.672 157.305 164.998C157.607 164.323 158.051 163.722 158.606 163.234C162.206 160.148 246.857 87.4285 360 87.4285C473.143 87.4285 557.794 160.148 561.394 163.234C561.949 163.722 562.393 164.323 562.695 164.998C562.996 165.672 563.149 166.404 563.143 167.143V411.943C563.143 512.228 370.8 627.017 362.571 631.851C361.793 632.314 360.906 632.562 360 632.571ZM167.143 169.714V411.943C167.143 500.297 336.754 607.371 360 621.36C383.246 606.857 552.857 500.4 552.857 411.943V169.508C540.206 159.223 460.286 97.5085 360 97.5085C259.714 97.5085 179.794 159.12 167.143 169.508V169.714Z" fill="url(#paint0_linear)"/>
<defs>
<linearGradient id="paint0_linear" x1="360.103" y1="93.9085" x2="359.897" y2="633.909" gradientUnits="userSpaceOnUse">
<stop stop-color="#00C1C4"/>
<stop offset="1" stop-color="#4594E1"/>
</linearGradient>
</defs>
</svg>