<svg width="720" height="720" viewBox="0 0 720 720" fill="none" xmlns="http://www.w3.org/2000/svg">
<path d="M404.953 425.211V133.714C404.953 121.274 400.011 109.344 391.215 100.548C382.419 91.7523 370.489 86.8108 358.05 86.8108C345.61 86.8108 333.68 91.7523 324.885 100.548C316.089 109.344 311.147 121.274 311.147 133.714V425.211C288.756 435.856 270.652 453.802 259.811 476.1C248.97 498.397 246.037 523.719 251.494 547.904C256.95 572.089 270.472 593.698 289.837 609.181C309.201 624.663 333.257 633.097 358.05 633.097C382.843 633.097 406.898 624.663 426.263 609.181C445.627 593.698 459.149 572.089 464.606 547.904C470.062 523.719 467.129 498.397 456.288 476.1C445.447 453.802 427.344 435.856 404.953 425.211V425.211ZM456.998 523.851C457.001 541.685 452.184 559.189 443.056 574.51C433.929 589.832 420.829 602.402 405.145 610.89C389.46 619.378 371.772 623.47 353.953 622.731C336.134 621.993 318.846 616.452 303.917 606.695C288.988 596.938 276.974 583.328 269.145 567.304C261.316 551.28 257.963 533.437 259.442 515.664C260.92 497.891 267.175 480.848 277.544 466.338C287.913 451.828 302.011 440.39 318.347 433.234L321.433 431.897V133.714C321.433 124.002 325.291 114.688 332.158 107.821C339.025 100.954 348.338 97.0965 358.05 97.0965C367.761 97.0965 377.075 100.954 383.942 107.821C390.809 114.688 394.667 124.002 394.667 133.714V431.999L397.753 433.337C415.34 441.055 430.305 453.721 440.824 469.791C451.343 485.862 456.962 504.644 456.998 523.851V523.851ZM430.05 174.137C430.05 172.773 430.592 171.464 431.556 170.5C432.521 169.535 433.829 168.994 435.193 168.994H466.05C467.414 168.994 468.722 169.535 469.686 170.5C470.651 171.464 471.193 172.773 471.193 174.137C471.193 175.5 470.651 176.809 469.686 177.773C468.722 178.738 467.414 179.279 466.05 179.279H435.193C434.517 179.279 433.849 179.146 433.225 178.888C432.601 178.629 432.034 178.251 431.556 177.773C431.079 177.296 430.7 176.729 430.441 176.105C430.183 175.481 430.05 174.812 430.05 174.137V174.137ZM471.193 215.279C471.193 216.643 470.651 217.951 469.686 218.916C468.722 219.88 467.414 220.422 466.05 220.422H435.193C433.829 220.422 432.521 219.88 431.556 218.916C430.592 217.951 430.05 216.643 430.05 215.279C430.05 213.915 430.592 212.607 431.556 211.643C432.521 210.678 433.829 210.137 435.193 210.137H466.05C467.414 210.137 468.722 210.678 469.686 211.643C470.651 212.607 471.193 213.915 471.193 215.279V215.279ZM471.193 256.422C471.193 257.786 470.651 259.094 469.686 260.059C468.722 261.023 467.414 261.565 466.05 261.565H435.193C433.829 261.565 432.521 261.023 431.556 260.059C430.592 259.094 430.05 257.786 430.05 256.422C430.05 255.058 430.592 253.75 431.556 252.786C432.521 251.821 433.829 251.279 435.193 251.279H466.05C467.414 251.279 468.722 251.821 469.686 252.786C470.651 253.75 471.193 255.058 471.193 256.422V256.422ZM471.193 297.565C471.193 298.929 470.651 300.237 469.686 301.202C468.722 302.166 467.414 302.708 466.05 302.708H435.193C433.829 302.708 432.521 302.166 431.556 301.202C430.592 300.237 430.05 298.929 430.05 297.565C430.05 296.201 430.592 294.893 431.556 293.929C432.521 292.964 433.829 292.422 435.193 292.422H466.05C467.414 292.422 468.722 292.964 469.686 293.929C470.651 294.893 471.193 296.201 471.193 297.565V297.565ZM471.193 379.851C471.193 381.215 470.651 382.523 469.686 383.487C468.722 384.452 467.414 384.994 466.05 384.994H435.193C433.829 384.994 432.521 384.452 431.556 383.487C430.592 382.523 430.05 381.215 430.05 379.851C430.05 378.487 430.592 377.179 431.556 376.214C432.521 375.25 433.829 374.708 435.193 374.708H466.05C467.414 374.708 468.722 375.25 469.686 376.214C470.651 377.179 471.193 378.487 471.193 379.851V379.851ZM471.193 338.708C471.193 340.072 470.651 341.38 469.686 342.345C468.722 343.309 467.414 343.851 466.05 343.851H435.193C433.829 343.851 432.521 343.309 431.556 342.345C430.592 341.38 430.05 340.072 430.05 338.708C430.05 337.344 430.592 336.036 431.556 335.071C432.521 334.107 433.829 333.565 435.193 333.565H466.05C467.414 333.565 468.722 334.107 469.686 335.071C470.651 336.036 471.193 337.344 471.193 338.708V338.708ZM363.193 461.211V232.251C363.193 230.887 362.651 229.579 361.686 228.614C360.722 227.65 359.414 227.108 358.05 227.108C356.686 227.108 355.378 227.65 354.413 228.614C353.449 229.579 352.907 230.887 352.907 232.251V461.211C336.356 462.539 320.961 470.22 309.946 482.644C298.931 495.069 293.151 511.273 293.816 527.864C294.48 544.455 301.539 560.145 313.512 571.648C325.486 583.152 341.446 589.576 358.05 589.576C374.654 589.576 390.614 583.152 402.588 571.648C414.561 560.145 421.619 544.455 422.284 527.864C422.949 511.273 417.168 495.069 406.153 482.644C395.139 470.22 379.744 462.539 363.193 461.211ZM412.05 525.291C412.05 535.971 408.883 546.411 402.949 555.292C397.016 564.172 388.582 571.093 378.715 575.18C368.848 579.267 357.99 580.337 347.515 578.253C337.04 576.17 327.418 571.027 319.866 563.475C312.314 555.923 307.171 546.301 305.087 535.826C303.004 525.351 304.073 514.493 308.16 504.626C312.247 494.759 319.169 486.325 328.049 480.391C336.929 474.458 347.37 471.291 358.05 471.291C372.363 471.318 386.082 477.016 396.204 487.137C406.325 497.258 412.023 510.977 412.05 525.291V525.291Z" fill="url(#paint0_linear)"/>
<defs>
<linearGradient id="paint0_linear" x1="360.004" y1="86.9136" x2="360.004" y2="633.085" gradientUnits="userSpaceOnUse">
<stop stop-color="#00C1C4"/>
<stop offset="1" stop-color="#4594E1"/>
</linearGradient>
</defs>
</svg>